<svg width="100" height="100" viewBox="0 0 100 100" xmlns="http://www.w3.org/2000/svg">
  <g fill="none" stroke="#FFD700" stroke-width="5" stroke-linecap="round">
    <line x1="50" y1="15" x2="50" y2="25" />
    <line x1="50" y1="15" x2="50" y2="25" transform="rotate(30 50 50)" />
    <line x1="50" y1="15" x2="50" y2="25" transform="rotate(60 50 50)" />
    <line x1="50" y1="15" x2="50" y2="25" transform="rotate(90 50 50)" />
    <line x1="50" y1="15" x2="50" y2="25" transform="rotate(120 50 50)" />
    <line x1="50" y1="15" x2="50" y2="25" transform="rotate(150 50 50)" />
    <line x1="50" y1="15" x2="50" y2="25" transform="rotate(180 50 50)" />
    <line x1="50" y1="15" x2="50" y2="25" transform="rotate(210 50 50)" />
    <line x1="50" y1="15" x2="50" y2="25" transform="rotate(240 50 50)" />
    <line x1="50" y1="15" x2="50" y2="25" transform="rotate(270 50 50)" />
    <line x1="50" y1="15" x2="50" y2="25" transform="rotate(300 50 50)" />
    <line x1="50" y1="15" x2="50" y2="25" transform="rotate(330 50 50)" />
  </g>
  <circle cx="50" cy="50" r="18" fill="#FFD700" />
</svg>